<svg xmlns="http://www.w3.org/2000/svg" viewBox="0 0 64 64" role="img" aria-label="Bad Mermaid favicon">
  <defs>
    <linearGradient id="bg" x1="0" y1="0" x2="1" y2="1">
      <stop offset="0%" stop-color="#7ad6df" />
      <stop offset="100%" stop-color="#0b666d" />
    </linearGradient>
  </defs>
  <rect width="64" height="64" rx="18" fill="url(#bg)" />
  <path
    d="M19 45V19h10.5c4.7 0 8.1 2.7 8.1 7.1 0 2.6-1.1 4.5-3.3 5.6 2.9.9 4.5 3 4.5 6.2 0 4.8-3.8 7.1-8.8 7.1H19Zm6.1-15.8h4.1c1.9 0 3-1 3-2.6 0-1.8-1.2-2.7-3.1-2.7h-4v5.3Zm0 10.8H30c2 0 3.3-.9 3.3-2.8 0-2-1.4-3-3.4-3h-4.8V40ZM41.2 45V19h6.2l6.7 11.3L60.8 19H67v26h-5.8V29.6l-6 10h-2.1l-6.1-10V45h-5.8Z"
    fill="#f6ffff"
    transform="translate(-7.5 0)"
  />
</svg>
